<svg id="Layer_1" data-name="Layer 1" xmlns="http://www.w3.org/2000/svg" viewBox="0 0 1431.29 224.77"><defs><style>.cls-1{font-size:201.5px;font-family:Consolas-Bold, Consolas;font-weight:700;letter-spacing:0.2em;}</style></defs><title>brand_logo</title><path d="M336.24,444.66A17.62,17.62,0,1,0,318.62,427,17.65,17.65,0,0,0,336.24,444.66Zm0-21.91A4.29,4.29,0,1,1,332,427,4.29,4.29,0,0,1,336.24,422.75Z" transform="translate(-112 -335.61)"/><path d="M341.8,380.13A127.22,127.22,0,0,0,310.58,366a118.61,118.61,0,0,0-16.19-3.62A84.07,84.07,0,0,0,252,340.43a83,83,0,0,0-22.79-1.57l-7.38.77,6.74,31.17c-2.33,1-4.65,2.07-6.94,3.22A140.55,140.55,0,0,0,181,404.9l-69-47.15,20.82,68.77a26.41,26.41,0,0,1,0,15.4L112,510.69l69-47.15a140.55,140.55,0,0,0,40.57,30.89,120.64,120.64,0,0,0,81.31,10.05l10-2.26-6.09-8.2c-9.13-12.32-15.43-24.81-18.73-37.13a75.92,75.92,0,0,1-2.24-28.77c1.89-15.76,8.56-25.43,8.83-25.82l7.88-10.57-13.26,0h-.22a128.39,128.39,0,0,0-56,13A120.72,120.72,0,0,0,210.08,419a138.14,138.14,0,0,0-14.4,14.06c-1.65,1.77-3.35,3.61-5,5.35a108.83,108.83,0,0,1-12,10.61l-42.9,29.3,9.86-32.56a39.8,39.8,0,0,0,0-23.13l-9.86-32.56,36.68,25L164,425.59,174.35,434l12.9-16c24.06-28.18,55.67-43.7,89-43.7,20.6,0,40.28,5.76,58.49,17.14,16.46,10.28,31.12,25,42.58,42.79a145.33,145.33,0,0,1-25,29.5A123.4,123.4,0,0,1,323,483.45c-1-1.39-2-2.91-3.06-4.63C306.87,458,302.63,440,306.61,422.41l-13-2.94a73.46,73.46,0,0,0,.89,35.22c2.66,10.05,7.3,20.26,14.17,31.21a93.66,93.66,0,0,0,7.09,10l3.16,3.85,4.58-1.94a135.39,135.39,0,0,0,37.75-24.19,159.92,159.92,0,0,0,29.65-36l2.11-3.47-2.11-3.46C378.05,409.68,361.08,392.17,341.8,380.13ZM200.22,447.72c1.79-1.85,3.54-3.74,5.23-5.57a127.46,127.46,0,0,1,13-12.74,107.42,107.42,0,0,1,20.44-12.73A115.54,115.54,0,0,1,278,405.59a80.19,80.19,0,0,0-5.3,20.09A88.72,88.72,0,0,0,275,459.76a117.54,117.54,0,0,0,15.05,33.49,106.66,106.66,0,0,1-13.82.9c-31.28,0-61-13.66-84.45-38.6C194.82,453,197.63,450.38,200.22,447.72Zm41-81.54-3.05-14.11a76.78,76.78,0,0,1,32.33,9A119.92,119.92,0,0,0,241.19,366.18Z" transform="translate(-112 -335.61)"/><text class="cls-1" transform="translate(373.66 165.05)">DEEPSEA</text></svg>