<svg id="Layer_1" data-name="Layer 1" xmlns="http://www.w3.org/2000/svg" viewBox="0 0 1486 320.02"><defs><style>.cls-1,.cls-2{fill:#fff;}.cls-2{font-size:129.44px;font-family:Consolas-Bold, Consolas;font-weight:700;letter-spacing:0.2em;}</style></defs><title>brand_logo_white</title><path class="cls-1" d="M472,460.83c16.6,0,30.1-14.7,30.1-32.77s-13.5-32.78-30.1-32.78-30.1,14.71-30.1,32.78S455.44,460.83,472,460.83Zm0-40.75c4,0,7.32,3.58,7.32,8s-3.28,8-7.32,8-7.32-3.57-7.32-8S468,420.08,472,420.08Z" transform="translate(-89 -263.65)"/><path class="cls-1" d="M481.55,340.81a210.32,210.32,0,0,0-53.33-26.35,192.2,192.2,0,0,0-27.66-6.73A140.26,140.26,0,0,0,328.12,267c-22-4.79-38.25-3-38.93-2.92l-12.62,1.44,11.52,58q-6,2.79-11.86,6c-25.54,13.91-48.82,33.2-69.31,57.45L89,299.18,124.57,427.1a53.59,53.59,0,0,1,0,28.65L89,583.67,206.93,496c20.49,24.24,43.76,43.55,69.31,57.45,29.59,16.12,61,24.28,93.34,24.28a189.58,189.58,0,0,0,45.55-5.57l17-4.22-10.4-15.25c-15.6-22.9-26.36-46.14-32-69.07a153.34,153.34,0,0,1-3.83-53.51c3.23-29.31,14.63-47.3,15.1-48l13.46-19.65-22.65,0h-.38a210.38,210.38,0,0,0-134.9,50.82c-9.19,8.06-17,17.26-24.6,26.15-2.81,3.29-5.72,6.71-8.61,9.95A191.6,191.6,0,0,1,202.8,469l-73.28,54.5,16.84-60.57a80.32,80.32,0,0,0,0-43l-16.84-60.57L192.18,406l-14.4,19.41L195.5,441l22-29.72c41.1-52.41,95.1-81.28,152-81.28,35.18,0,68.79,10.72,99.89,31.88,28.12,19.13,53.16,46.55,72.75,79.59a265.86,265.86,0,0,1-42.69,54.89A210.86,210.86,0,0,1,449.44,533c-1.66-2.58-3.38-5.42-5.22-8.61-22.35-38.8-29.59-72.14-22.79-104.93L399.21,414a148,148,0,0,0,1.52,65.5c4.54,18.69,12.46,37.69,24.2,58.06A178.32,178.32,0,0,0,437,556.21l5.4,7.16,7.84-3.61c23.11-10.62,44.8-25.76,64.48-45a293.73,293.73,0,0,0,50.64-66.89l3.61-6.45L565.39,435C543.46,395.76,514.47,363.2,481.55,340.81ZM239.69,466.53c3.06-3.44,6.05-7,8.95-10.35,7.34-8.62,14.28-16.76,22.19-23.7a181.17,181.17,0,0,1,34.91-23.68,184.6,184.6,0,0,1,66.81-20.63,158.93,158.93,0,0,0-9.06,37.36,179.48,179.48,0,0,0,4,63.4c5,20.83,13.63,41.72,25.71,62.29a166.74,166.74,0,0,1-23.61,1.68c-53.42,0-104.24-25.41-144.25-71.81C230.48,476.35,235.28,471.48,239.69,466.53Zm70-151.67-5.21-26.24a122.73,122.73,0,0,1,55.21,16.8A189.17,189.17,0,0,0,309.69,314.86Z" transform="translate(-89 -263.65)"/><text class="cls-2" transform="translate(595.66 212.99) scale(1.31 1)">DEEPSEA</text></svg>